<svg version="1.1" xmlns="http://www.w3.org/2000/svg" xmlns:xlink="http://www.w3.org/1999/xlink" width="48" height="48"><defs><linearGradient x1="12.76675" y1="12.76675" x2="59.62328" y2="59.62328" gradientUnits="userSpaceOnUse" id="color-1"><stop offset="0" stop-color="#000000" stop-opacity="0.3"></stop><stop offset="1" stop-color="#000000" stop-opacity="0"></stop></linearGradient><filter id="dropshadow-base"><feColorMatrix type="matrix" values="0 0 0 0 0  0 0 0 0 0  0 0 0 0 0  0 0 0 .8 0"></feColorMatrix> <feOffset dx="0" dy="1"></feOffset> <feGaussianBlur stdDeviation="1"></feGaussianBlur> <feComposite in="SourceGraphic"></feComposite></filter><filter id="dropshadow-banner" x="-10%" y="-10%" width="120%" height="130%"><feColorMatrix type="matrix" values="0 0 0 0 0  0 0 0 0 0  0 0 0 0 0  0 0 0 .4 0"></feColorMatrix> <feOffset dx="0" dy="1"></feOffset> <feGaussianBlur stdDeviation="0.5"></feGaussianBlur> <feComposite in="SourceGraphic"></feComposite></filter></defs><g fill="none" fill-rule="nonzero" stroke="none" stroke-width="none" stroke-linecap="butt" stroke-linejoin="miter" stroke-miterlimit="10" stroke-dasharray="" stroke-dashoffset="0" font-family="none" font-weight="none" font-size="none" text-anchor="none" style="mix-blend-mode: normal"><path d="M2,24c0,-12.15026 9.84974,-22 22,-22c12.15026,0 22,9.84974 22,22c0,12.15026 -9.84974,22 -22,22c-12.15026,0 -22,-9.84974 -22,-22z" id="base 1 5" fill="#673ab7" stroke-width="1"></path><path d="M13.49769,34.50231c-0.45167,-0.45167 -0.73094,-1.07574 -0.73094,-1.76534v-17.47395c0,-1.3792 1.11708,-2.49628 2.49628,-2.49628h17.47395c0.6896,0 1.31367,0.27927 1.76534,0.73094l11.4765,11.4765c-0.49567,11.37526 -9.62937,20.50896 -21.00463,21.00463z" fill="url(#color-1)" stroke-width="1"></path><path d="M32.73697,12.76675h-17.47395c-1.37919,0 -2.49628,1.11708 -2.49628,2.49628v17.47395c0,1.37919 1.11708,2.49628 2.49628,2.49628h17.47395c1.37919,0 2.49628,-1.11708 2.49628,-2.49628v-17.47395c0,-1.37919 -1.11708,-2.49628 -2.49628,-2.49628zM18.38337,31.48883c-1.03596,0 -1.87221,-0.83625 -1.87221,-1.87221c0,-1.03596 0.83625,-1.87221 1.87221,-1.87221c1.03596,0 1.87221,0.83625 1.87221,1.87221c0,1.03596 -0.83625,1.87221 -1.87221,1.87221zM18.38337,20.25558c-1.03596,0 -1.87221,-0.83625 -1.87221,-1.87221c0,-1.03596 0.83625,-1.87221 1.87221,-1.87221c1.03596,0 1.87221,0.83625 1.87221,1.87221c0,1.03596 -0.83625,1.87221 -1.87221,1.87221zM24,25.87221c-1.03596,0 -1.87221,-0.83625 -1.87221,-1.87221c0,-1.03596 0.83625,-1.87221 1.87221,-1.87221c1.03596,0 1.87221,0.83625 1.87221,1.87221c0,1.03596 -0.83625,1.87221 -1.87221,1.87221zM29.61663,31.48883c-1.03596,0 -1.87221,-0.83625 -1.87221,-1.87221c0,-1.03596 0.83625,-1.87221 1.87221,-1.87221c1.03596,0 1.87221,0.83625 1.87221,1.87221c0,1.03596 -0.83625,1.87221 -1.87221,1.87221zM29.61663,20.25558c-1.03596,0 -1.87221,-0.83625 -1.87221,-1.87221c0,-1.03596 0.83625,-1.87221 1.87221,-1.87221c1.03596,0 1.87221,0.83625 1.87221,1.87221c0,1.03596 -0.83625,1.87221 -1.87221,1.87221z" fill="none" stroke-width="0"></path><path d="M35.23325,15.26303v17.47395c0,1.37919 -1.11708,2.49628 -2.49628,2.49628h-17.47395c-1.37919,0 -2.49628,-1.11708 -2.49628,-2.49628v-17.47395c0,-1.37919 1.11708,-2.49628 2.49628,-2.49628h17.47395c1.37919,0 2.49628,1.11708 2.49628,2.49628zM20.25558,29.61663c0,-1.03596 -0.83625,-1.87221 -1.87221,-1.87221c-1.03596,0 -1.87221,0.83625 -1.87221,1.87221c0,1.03596 0.83625,1.87221 1.87221,1.87221c1.03596,0 1.87221,-0.83625 1.87221,-1.87221zM20.25558,18.38337c0,-1.03596 -0.83625,-1.87221 -1.87221,-1.87221c-1.03596,0 -1.87221,0.83625 -1.87221,1.87221c0,1.03596 0.83625,1.87221 1.87221,1.87221c1.03596,0 1.87221,-0.83625 1.87221,-1.87221zM25.87221,24c0,-1.03596 -0.83625,-1.87221 -1.87221,-1.87221c-1.03596,0 -1.87221,0.83625 -1.87221,1.87221c0,1.03596 0.83625,1.87221 1.87221,1.87221c1.03596,0 1.87221,-0.83625 1.87221,-1.87221zM31.48883,29.61663c0,-1.03596 -0.83625,-1.87221 -1.87221,-1.87221c-1.03596,0 -1.87221,0.83625 -1.87221,1.87221c0,1.03596 0.83625,1.87221 1.87221,1.87221c1.03596,0 1.87221,-0.83625 1.87221,-1.87221zM31.48883,18.38337c0,-1.03596 -0.83625,-1.87221 -1.87221,-1.87221c-1.03596,0 -1.87221,0.83625 -1.87221,1.87221c0,1.03596 0.83625,1.87221 1.87221,1.87221c1.03596,0 1.87221,-0.83625 1.87221,-1.87221z" fill="#ffff00" stroke-width="0"></path><path d="M2,24c0,-12.15026 9.84974,-22 22,-22c12.15026,0 22,9.84974 22,22c0,12.15026 -9.84974,22 -22,22c-12.15026,0 -22,-9.84974 -22,-22z" id="base 1 1 1" fill="none" stroke-width="1"></path><g fill="#000000" stroke-width="1" font-family="Roboto, sans-serif" font-weight="normal" font-size="14" text-anchor="start"></g><rect x="2" y="2" width="44" height="22" fill="none" stroke-width="1"></rect><path d="M2,24v-22h44v22z" fill="none" stroke-width="1"></path><path d="M2,24v-22h44v22z" fill="none" stroke-width="1"></path><path d="M2,24v-22h44v22z" fill="none" stroke-width="1"></path><path d="M2,24v-22h44v22z" fill="none" stroke-width="1"></path></g></svg>