<svg version="1.1" xmlns="http://www.w3.org/2000/svg" xmlns:xlink="http://www.w3.org/1999/xlink" width="48" height="48"><defs><linearGradient x1="11.67152" y1="11.67152" x2="63.09651" y2="63.09651" gradientUnits="userSpaceOnUse" id="color-1"><stop offset="0" stop-color="#000000" stop-opacity="0.3"></stop><stop offset="1" stop-color="#000000" stop-opacity="0"></stop></linearGradient><filter id="dropshadow-base"><feColorMatrix type="matrix" values="0 0 0 0 0  0 0 0 0 0  0 0 0 0 0  0 0 0 .8 0"></feColorMatrix> <feOffset dx="0" dy="1"></feOffset> <feGaussianBlur stdDeviation="1"></feGaussianBlur> <feComposite in="SourceGraphic"></feComposite></filter><filter id="dropshadow-banner" x="-10%" y="-10%" width="120%" height="130%"><feColorMatrix type="matrix" values="0 0 0 0 0  0 0 0 0 0  0 0 0 0 0  0 0 0 .4 0"></feColorMatrix> <feOffset dx="0" dy="1"></feOffset> <feGaussianBlur stdDeviation="0.5"></feGaussianBlur> <feComposite in="SourceGraphic"></feComposite></filter></defs><g fill="none" fill-rule="nonzero" stroke="none" stroke-width="none" stroke-linecap="butt" stroke-linejoin="miter" stroke-miterlimit="10" stroke-dasharray="" stroke-dashoffset="0" font-family="none" font-weight="none" font-size="none" text-anchor="none" style="mix-blend-mode: normal"><path d="M2,24c0,-12.15026 9.84974,-22 22,-22c12.15026,0 22,9.84974 22,22c0,12.15026 -9.84974,22 -22,22c-12.15026,0 -22,-9.84974 -22,-22z" id="base 1 5" fill="#ffff00" stroke-width="1"></path><path d="M12.47372,35.52628c-0.49571,-0.49571 -0.80221,-1.18062 -0.80221,-1.93745v-19.17764c0,-1.51367 1.22599,-2.73966 2.73966,-2.73966h19.17764c0.75683,0 1.44175,0.3065 1.93745,0.80221l10.44775,10.44775c0.01725,0.35734 0.02597,0.71691 0.02597,1.07853c0,12.15026 -9.84974,22 -22,22c-0.36161,0 -0.72119,-0.00872 -1.07853,-0.02597z" fill="url(#color-1)" stroke-width="1"></path><path d="M33.58882,11.67152h-19.17764c-1.51366,0 -2.73966,1.226 -2.73966,2.73966v19.17764c0,1.51366 1.226,2.73966 2.73966,2.73966h19.17764c1.51366,0 2.73966,-1.226 2.73966,-2.73966v-19.17764c0,-1.51366 -1.226,-2.73966 -2.73966,-2.73966zM17.83576,32.21899c-1.13696,0 -2.05475,-0.91779 -2.05475,-2.05475c0,-1.13696 0.91779,-2.05475 2.05475,-2.05475c1.13696,0 2.05475,0.91779 2.05475,2.05475c0,1.13696 -0.91779,2.05475 -2.05475,2.05475zM17.83576,19.89051c-1.13696,0 -2.05475,-0.91779 -2.05475,-2.05475c0,-1.13696 0.91779,-2.05475 2.05475,-2.05475c1.13696,0 2.05475,0.91779 2.05475,2.05475c0,1.13696 -0.91779,2.05475 -2.05475,2.05475zM24,26.05475c-1.13696,0 -2.05475,-0.91779 -2.05475,-2.05475c0,-1.13696 0.91779,-2.05475 2.05475,-2.05475c1.13696,0 2.05475,0.91779 2.05475,2.05475c0,1.13696 -0.91779,2.05475 -2.05475,2.05475zM30.16424,32.21899c-1.13696,0 -2.05475,-0.91779 -2.05475,-2.05475c0,-1.13696 0.91779,-2.05475 2.05475,-2.05475c1.13696,0 2.05475,0.91779 2.05475,2.05475c0,1.13696 -0.91779,2.05475 -2.05475,2.05475zM30.16424,19.89051c-1.13696,0 -2.05475,-0.91779 -2.05475,-2.05475c0,-1.13696 0.91779,-2.05475 2.05475,-2.05475c1.13696,0 2.05475,0.91779 2.05475,2.05475c0,1.13696 -0.91779,2.05475 -2.05475,2.05475z" fill="none" stroke-width="0"></path><path d="M36.32848,14.41118v19.17764c0,1.51366 -1.226,2.73966 -2.73966,2.73966h-19.17764c-1.51366,0 -2.73966,-1.226 -2.73966,-2.73966v-19.17764c0,-1.51366 1.226,-2.73966 2.73966,-2.73966h19.17764c1.51366,0 2.73966,1.226 2.73966,2.73966zM19.89051,30.16424c0,-1.13696 -0.91779,-2.05475 -2.05475,-2.05475c-1.13696,0 -2.05475,0.91779 -2.05475,2.05475c0,1.13696 0.91779,2.05475 2.05475,2.05475c1.13696,0 2.05475,-0.91779 2.05475,-2.05475zM19.89051,17.83576c0,-1.13696 -0.91779,-2.05475 -2.05475,-2.05475c-1.13696,0 -2.05475,0.91779 -2.05475,2.05475c0,1.13696 0.91779,2.05475 2.05475,2.05475c1.13696,0 2.05475,-0.91779 2.05475,-2.05475zM26.05475,24c0,-1.13696 -0.91779,-2.05475 -2.05475,-2.05475c-1.13696,0 -2.05475,0.91779 -2.05475,2.05475c0,1.13696 0.91779,2.05475 2.05475,2.05475c1.13696,0 2.05475,-0.91779 2.05475,-2.05475zM32.21899,30.16424c0,-1.13696 -0.91779,-2.05475 -2.05475,-2.05475c-1.13696,0 -2.05475,0.91779 -2.05475,2.05475c0,1.13696 0.91779,2.05475 2.05475,2.05475c1.13696,0 2.05475,-0.91779 2.05475,-2.05475zM32.21899,17.83576c0,-1.13696 -0.91779,-2.05475 -2.05475,-2.05475c-1.13696,0 -2.05475,0.91779 -2.05475,2.05475c0,1.13696 0.91779,2.05475 2.05475,2.05475c1.13696,0 2.05475,-0.91779 2.05475,-2.05475z" fill="#673ab7" stroke-width="0"></path><path d="M2,24c0,-12.15026 9.84974,-22 22,-22c12.15026,0 22,9.84974 22,22c0,12.15026 -9.84974,22 -22,22c-12.15026,0 -22,-9.84974 -22,-22z" id="base 1 1 1" fill="none" stroke-width="1"></path><g fill="#000000" stroke-width="1" font-family="Roboto, sans-serif" font-weight="normal" font-size="14" text-anchor="start"></g><rect x="2" y="2" width="44" height="22" fill="none" stroke-width="1"></rect><path d="M2,24v-22h44v22z" fill="none" stroke-width="1"></path><path d="M2,24v-22h44v22z" fill="none" stroke-width="1"></path><path d="M2,24v-22h44v22z" fill="none" stroke-width="1"></path><path d="M2,24v-22h44v22z" fill="none" stroke-width="1"></path></g></svg>